inDegrees=no
num_controls=7
num_derivatives=13
num_iterations=107
num_multipliers=7
num_parameters=0
num_slacks=7
num_states=26
objective=0.431181
objective_accelerations=0.049789
objective_balance=0.006707
objective_effort=0.030994
objective_height=0.342519
objective_ligament=0.001172
solver_duration=1362.156077
status=Solve_Succeeded
success=true
DataType=double
version=3
OpenSimVersion=4.5
endheader
time	/jointset/ground_pelvis/pelvis_tilt/value	/jointset/ground_pelvis/pelvis_tx/value	/jointset/ground_pelvis/pelvis_ty/value	/jointset/hip_l/hip_flexion_l/value	/jointset/hip_l/hip_adduction_l/value	/jointset/hip_l/hip_rotation_l/value	/jointset/back/lumbar_extension/value	/jointset/patellofemoral_l/patellar_flexion_l/value	/jointset/knee_l/knee_flexion_l/value	/jointset/knee_l/knee_adduction_l/value	/jointset/knee_l/knee_rotation_l/value	/jointset/ankle_l/ankle_angle_l/value	/jointset/subtalar_l/subtalar_angle_l/value	/jointset/ground_pelvis/pelvis_tilt/speed	/jointset/ground_pelvis/pelvis_tx/speed	/jointset/ground_pelvis/pelvis_ty/speed	/jointset/hip_l/hip_flexion_l/speed	/jointset/hip_l/hip_adduction_l/speed	/jointset/hip_l/hip_rotation_l/speed	/jointset/back/lumbar_extension/speed	/jointset/patellofemoral_l/patellar_flexion_l/speed	/jointset/knee_l/knee_flexion_l/speed	/jointset/knee_l/knee_adduction_l/speed	/jointset/knee_l/knee_rotation_l/speed	/jointset/ankle_l/ankle_angle_l/speed	/jointset/subtalar_l/subtalar_angle_l/speed	/forceset/tau_hip_flexion_l	/forceset/tau_hip_adduction_l	/forceset/tau_hip_rotation_l	/forceset/tau_knee_flexion_l	/forceset/tau_ankle_angle_l	/forceset/tau_subtalar_angle_l	/forceset/tau_lumbar_extension	lambda_cid13_p0	lambda_cid13_p1	lambda_cid13_p2	lambda_cid13_p3	lambda_cid13_p4	lambda_cid13_p5	lambda_cid14_p0	/jointset/ground_pelvis/pelvis_tilt/accel	/jointset/ground_pelvis/pelvis_tx/accel	/jointset/ground_pelvis/pelvis_ty/accel	/jointset/hip_l/hip_flexion_l/accel	/jointset/hip_l/hip_adduction_l/accel	/jointset/hip_l/hip_rotation_l/accel	/jointset/back/lumbar_extension/accel	/jointset/patellofemoral_l/patellar_flexion_l/accel	/jointset/knee_l/knee_flexion_l/accel	/jointset/knee_l/knee_adduction_l/accel	/jointset/knee_l/knee_rotation_l/accel	/jointset/ankle_l/ankle_angle_l/accel	/jointset/subtalar_l/subtalar_angle_l/accel	gamma_cid13_p0	gamma_cid13_p1	gamma_cid13_p2	gamma_cid13_p3	gamma_cid13_p4	gamma_cid13_p5	gamma_cid14_p0
0	-0.156851855843459	0.05734084961331339	0.8978889535205646	0.3774924667018715	-0.2607078469652609	-0.2458873935213635	-0.01265067647494873	0.03223648243721672	0.03223648243721463	-0.1745323688342888	0.1486863537890751	-0.04231377076293093	-0.01114836242492911	0	0	0	0	0	0	0	0	0	0	0	0	0	0.1567476951550386	-0.08112748577676122	-0.05258688251207537	-0.3455587380276351	0.3940132864875643	-0.05639870233569148	-0.09278483849801981	84.69108721430371	5.336267019243267	3.691471805357969	-38.09695266217931	-591.2607300083579	-66.7256321991981	-38.29026060323672	-2.878119764377403	-1.222978376531906	-0.9510399393909892	10.75703747020458	-1.343186179214092	3.440506444737666	-5.45129971344905	10.73864778824967	10.73864778825145	0.05097020673883741	0.3242969229348781	3.104314373691345	-0.6517432297114106	-6.885431376961034e-08	4.975596742018595e-08	1.502076708071224e-07	3.856153758325363e-08	-3.579219574729341e-08	-1.283788030081462e-07	-2.360974843520252e-08
0.01	-0.1569883161667188	0.0572783884531135	0.8978424522696286	0.378017259842695	-0.2607744803655291	-0.2457162172663108	-0.01292443300495937	0.03276155593114388	0.03276155593114485	-0.1745313969548302	0.1486993532695009	-0.04216522886136131	-0.01118196396338624	-0.02699094242474134	-0.0126555165634476	-0.009278344757214693	0.1045930716045242	-0.01324205951178527	0.0340591254071763	-0.05442057871044438	0.1045673303610888	0.1045673303610837	0.0002267761723441707	0.002605988868849453	0.02931032090246305	-0.006730304531947862	0.1412852435747087	-0.09031645394097933	-0.04839491472633795	-0.3185950883326855	0.3489040054724751	-0.0327511307933307	-0.08209814221060924	70.99469478568098	-2.371508438101303	4.732713705299024	-27.63892330657276	-591.5438066903176	-80.69981064534109	-38.30560616441354	-2.564420398716665	-1.31132326254843	-0.9129530878345491	10.25560013707111	-1.302058038742137	3.362176773821053	-5.387827856088991	10.24867511833999	10.24867511833787	0.01342328951211713	0.229645416250503	2.784675716746941	-0.6851979264172475	-8.226805332589792e-08	8.974341866886168e-08	1.679926312675652e-07	4.742880164356162e-08	-1.341064495885318e-07	-7.882126647521209e-08	-2.714830987188021e-08
0.02	-0.1573856536976616	0.05708447513401951	0.8977038233023311	0.3795770153258605	-0.2609710028012313	-0.2452097375201603	-0.01373247350332255	0.03431888262034376	0.03431888262034292	-0.1745271789202234	0.1487385917480861	-0.04173552679712201	-0.01128317331945881	-0.0521754415372532	-0.02629043177882335	-0.01842554327229445	0.2069924684688346	-0.02597780708682227	0.06706069821889064	-0.1068567936707586	0.2064506390542392	0.2064506390542119	0.0006492310258823916	0.005247799633321068	0.05623203253385362	-0.01352156352312718	0.1258227919943418	-0.09950542210521354	-0.04420294694063392	-0.29163143863775	0.303794724457377	-0.009103559250987166	-0.07141144592321653	57.38487248682504	-10.09730313473982	5.78010279058141	-17.4087192220022	-590.555453077051	-94.56186630377432	-38.35120252595426	-2.516831101931484	-1.418858106917564	-0.9248106909640034	10.31830252216183	-1.241923791864446	3.22899592564527	-5.054426963423015	10.20184345466198	10.20184345466036	0.09010594297763121	0.3314613020593157	2.626592519476814	-0.6639341215577196	-9.568179288218551e-08	1.297308699175374e-07	1.85777591728008e-07	5.629606570386962e-08	-2.324207034297701e-07	-2.926372994227794e-08	-3.068687130855791e-08
0.03	-0.1580278002900299	0.05675200145468434	0.8974742700542967	0.382148735830198	-0.261292168736262	-0.2443782191360868	-0.01505423805443346	0.03688170540534051	0.03688170540533843	-0.174517792363385	0.1488042993334413	-0.04104511303073025	-0.01145167425282492	-0.07612246380510378	-0.04009731193655683	-0.02746855095134114	0.3068246685105409	-0.0381635914627262	0.09909886086577524	-0.1571243401298814	0.3056428646635845	0.3056428646634974	0.00123246263201997	0.007876134152086224	0.08178358276185153	-0.02010921244330718	0.1211755807109666	-0.09307977547097454	-0.04362429856682325	-0.2880289149201959	0.3007018725861568	-0.01290884988536581	-0.06744250457881747	56.24852979089133	-8.401070627527311	5.687145576976985	-17.2732257353078	-590.835460085863	-90.4052822813069	-38.42559886606757	-2.31393441478326	-1.345542852526257	-0.8916093802593759	9.736620708307926	-1.193169508028203	3.169583309866988	-4.957152023901546	9.70726027355693	9.707260273549513	0.04312985863994574	0.2258585483389318	2.509359408091033	-0.6458094147886809	-1.227061178241665e-07	1.408168974474587e-07	2.235397338758505e-07	8.197643672256523e-08	-3.583099316270738e-07	-3.092442539168194e-08	-3.756932391182039e-08
